





Failed/canceled pilot created by Sci-Fi channel based upon the book series by Philip Jose Farmer. Filmed in 2001 and aired once in 2003.
In the year 2009, a meteor shower above Earth claims the life of astronaut Jeff Hale. He awakens in an ocean of jade-green geodesic bubbles, as a mysterious cloaked figure pierces him with a pike. Dazed and in pain, he soon finds himself crawling onto a beach littered with canisters of clothing. Soon dozens of people from different lands and eras emerge from the water. Remarkably, they understand each other's language - all except for the lone Neanderthal man, who is killed by the ancient Roman Lucius Domitus Ahenobarbus, who became infamous under another name....Nero!




General
Complete name                    : Riverworld.2003.DVDRip.XviD-SAPHiRE.avi
Format                           : AVI
Format/Info                      : Audio Video Interleave
File size                        : 700 MiB
Duration                         : 1h 29mn
Overall bit rate                 : 1 089 Kbps
Movie name                       : Riverworld.2003.DVDRip.XviD-SAPHiRE
Subject                          : Riverworld.2003.DVDRip.XviD-SAPHiRE
Writing application              : Nandub v1.0rc2
Writing library                  : Nandub build 1852/release

Video
ID                               : 0
Format                           : MPEG-4 Visual
Format profile                   : Advanced Simple@L5
Format settings, BVOP            : Yes
Format settings, QPel            : No
Format settings, GMC             : No warppoints
Format settings, Matrix          : Default (MPEG)
Codec ID                         : XVID
Codec ID/Hint                    : XviD
Duration                         : 1h 29mn
Bit rate                         : 936 Kbps
Width                            : 640 pixels
Height                           : 352 pixels
Display aspect ratio             : 16/9
Frame rate                       : 23.976 fps
Resolution                       : 24 bits
Colorimetry                      : 4:2:0
Scan type                        : Progressive
Bits/(Pixel*Frame)               : 0.173
Stream size                      : 601 MiB (86%)
Writing library                  : XviD 1.0.2 (UTC 2004-08-29)

Audio
ID                               : 1
Format                           : MPEG Audio
Format version                   : Version 1
Format profile                   : Layer 3
Codec ID                         : 55
Codec ID/Hint                    : MP3
Duration                         : 1h 29mn
Bit rate mode                    : Variable
Bit rate                         : 140 Kbps
Minimum bit rate                 : 128 Kbps
Channel(s)                       : 2 channels
Sampling rate                    : 48.0 KHz
Resolution                       : 16 bits
Stream size                      : 90.3 MiB (13%)
Alignment                        : Aligned on interleaves
Interleave, duration             : 24 ms (0.58 video frame)
Interleave, preload duration     : 139 ms
Writing library                  : LAME3.96r
Encoding settings                : -m j -V 4 -q 3 -lowpass 18 --vbr-old -b 128

